<svg width="135" height="40" viewBox="0 0 135 40" fill="none" xmlns="http://www.w3.org/2000/svg"><g clip-path="url(#clip0_561_2250)" fill="#222"><path d="M130 0H5C2.25 0 0 2.25 0 5v30c0 2.75 2.25 5 5 5h125c2.75 0 5-2.25 5-5V5c0-2.75-2.25-5-5-5zm4.2 35a4.2 4.2 0 01-4.2 4.2H5A4.2 4.2 0 01.8 35V5A4.2 4.2 0 015 .8h125a4.2 4.2 0 014.2 4.2v30z"/><path d="M44.47 13.13c.9 0 1.64-.3 2.2-.89.5-.5.75-1.17.75-2 0-.15-.01-.3-.04-.45h-2.91v.72h2.18c-.04.52-.21.92-.5 1.22-.45.45-1.01.67-1.68.67-.63 0-1.18-.22-1.64-.67-.46-.44-.69-1.02-.69-1.73s.23-1.29.69-1.73c.46-.44 1.01-.67 1.64-.67.7 0 1.25.24 1.64.71l.53-.53c-.23-.28-.55-.5-.94-.67-.39-.17-.8-.25-1.23-.25-.87 0-1.6.3-2.21.9-.61.6-.91 1.34-.91 2.23 0 .89.3 1.63.91 2.23.61.6 1.34.9 2.21.9v.01zm7.56-.87H49.3v-1.9h2.46v-.72H49.3v-1.9h2.73V7h-3.51v6h3.51v-.74zm3.25.74V7.74h1.67V7h-4.12v.74h1.68V13h.77zm5.43-6h-.77v6h.77V7zm3.42 6V7.74h1.67V7h-4.12v.74h1.68V13h.77zm7.28.13c.88 0 1.61-.3 2.2-.91.59-.61.88-1.35.88-2.22 0-.87-.3-1.61-.89-2.22-.59-.61-1.32-.91-2.2-.91-.88 0-1.61.3-2.2.91-.59.61-.88 1.35-.88 2.22 0 .87.29 1.62.88 2.22.59.61 1.32.91 2.2.91h.01zm-1.63-4.86c.44-.45.99-.67 1.63-.67.64 0 1.19.22 1.63.67.44.45.67 1.02.67 1.72s-.22 1.27-.67 1.72c-.44.45-.99.67-1.63.67-.64 0-1.19-.22-1.63-.67-.44-.45-.67-1.02-.67-1.72s.22-1.27.67-1.72zm6.57.99l-.04-1.15h.04L79.4 13h.8V7h-.77v3.51l.03 1.16h-.03L76.51 7h-.93v6h.77V9.26zm-8.21 12.49c-2.35 0-4.27 1.79-4.27 4.25s1.92 4.25 4.27 4.25c2.35 0 4.27-1.8 4.27-4.25s-1.92-4.25-4.27-4.25zm0 6.83c-1.29 0-2.4-1.06-2.4-2.58s1.11-2.58 2.4-2.58c1.29 0 2.4 1.05 2.4 2.58s-1.11 2.58-2.4 2.58zm33.67-11.08h-4.47V30h1.87v-4.74h2.61c2.07 0 4.1-1.5 4.1-3.88s-2.03-3.88-4.1-3.88h-.01zm.05 6.03h-2.65v-4.29h2.65c1.4 0 2.19 1.16 2.19 2.14 0 .98-.79 2.14-2.19 2.14v.01zm-8.81.93c-.35-.95-1.43-2.71-3.64-2.71S85.4 23.47 85.4 26c0 2.38 1.8 4.25 4.22 4.25 1.95 0 3.08-1.19 3.54-1.88l-1.45-.97c-.48.71-1.14 1.18-2.09 1.18s-1.63-.43-2.06-1.29l5.69-2.35-.19-.48h-.01zm-5.8 1.42c-.05-1.64 1.27-2.48 2.22-2.48.74 0 1.37.37 1.58.9l-3.8 1.58zM84.5 17.5h-1.87V30h1.87V17.5zm37.101 9.92h-.06l-2.22-5.42h-2.01l3.33 7.58-1.9 4.21h1.95l5.13-11.79h-2.08l-2.14 5.42zm-12.792-9.92h-1.87V30h1.87V17.5zM79.57 22.7h-.06c-.42-.5-1.22-.95-2.24-.95-2.13 0-4.08 1.87-4.08 4.27 0 2.4 1.95 4.24 4.08 4.24 1.02 0 1.82-.45 2.24-.97h.06v.61c0 1.63-.87 2.5-2.27 2.5-1.14 0-1.85-.82-2.14-1.51l-1.63.68c.47 1.13 1.71 2.51 3.77 2.51 2.19 0 4.04-1.29 4.04-4.43v-7.64h-1.77v.69zm-2.14 5.88c-1.29 0-2.37-1.08-2.37-2.56s1.08-2.59 2.37-2.59 2.27 1.1 2.27 2.59c0 1.49-1 2.56-2.27 2.56zm35.96-6.85c-1.35 0-2.75.6-3.33 1.91l1.66.69c.35-.69 1.01-.92 1.7-.92.96 0 1.95.58 1.96 1.61v.13c-.34-.19-1.06-.48-1.95-.48-1.79 0-3.6.98-3.6 2.81 0 1.67 1.46 2.75 3.1 2.75 1.25 0 1.95-.56 2.38-1.22h.06v.96h1.8v-4.79c0-2.22-1.66-3.46-3.8-3.46l.02.01zm-.23 6.85c-.61 0-1.46-.31-1.46-1.06 0-.96 1.06-1.33 1.98-1.33.82 0 1.21.18 1.7.42a2.257 2.257 0 01-2.22 1.98v-.01zm-65.42-5.52v1.8h4.32c-.13 1.02-.47 1.76-.98 2.27-.63.63-1.61 1.32-3.33 1.32-2.66 0-4.74-2.14-4.74-4.8 0-2.66 2.08-4.8 4.74-4.8 1.43 0 2.48.56 3.25 1.29l1.27-1.27c-1.08-1.03-2.51-1.82-4.53-1.82-3.64 0-6.7 2.96-6.7 6.61 0 3.65 3.06 6.61 6.7 6.61 1.97 0 3.45-.64 4.61-1.85 1.19-1.19 1.56-2.87 1.56-4.22 0-.42-.03-.81-.1-1.13h-6.07v-.01zm11.08-1.31c-2.35 0-4.27 1.79-4.27 4.25s1.92 4.25 4.27 4.25c2.35 0 4.27-1.8 4.27-4.25s-1.92-4.25-4.27-4.25zm0 6.83c-1.29 0-2.4-1.06-2.4-2.58s1.11-2.58 2.4-2.58c1.29 0 2.4 1.05 2.4 2.58s-1.11 2.58-2.4 2.58zM9.47 8.92v22.39L20.7 20.12 9.47 8.92zm16.72 5.72L12.04 6.8c-.53-.3-1.19-.29-1.71.01l-.34.25 11.9 11.87 4.3-4.29zm7.01 3.89l-5.49-3.04-4.64 4.63 4.49 4.48 5.63-3.13a1.679 1.679 0 000-2.94h.01zM10.111 33.05l.22.15c.53.3 1.18.31 1.71.01l14-7.76-4.15-4.14-11.78 11.74z"/></g><defs><clipPath id="clip0_561_2250"><path fill="#fff" d="M0 0h135v40H0z"/></clipPath></defs></svg>