<svg width="120" height="40" viewBox="0 0 120 40" fill="none" xmlns="http://www.w3.org/2000/svg"><g clip-path="url(#clip0_561_2248)" fill="#222"><path fill-rule="evenodd" clip-rule="evenodd" d="M9.535 0h100.662a96.447 96.447 0 011.775.012l.169.003c.67.007 1.339.066 2 .176a6.77 6.77 0 011.908.627 6.469 6.469 0 012.799 2.8c.301.6.51 1.241.619 1.904.111.661.173 1.33.185 2.002.004.306.004.614.004.92.008.363.008.726.008 1.092v20.929c0 .37 0 .73-.008 1.094 0 .31 0 .611-.004.922-.012.67-.074 1.34-.185 2.002a6.621 6.621 0 01-.619 1.904A6.403 6.403 0 01117.666 38a6.293 6.293 0 01-1.617 1.179 6.805 6.805 0 01-1.908.63c-.662.11-1.33.17-2 .177a40.56 40.56 0 01-.922.011c-.36.002-.725.002-1.084.002H9.535c-.367 0-.73 0-1.095-.002-.306 0-.61-.004-.919-.01a13.443 13.443 0 01-2.004-.177 6.7 6.7 0 01-1.9-.631A6.274 6.274 0 011.996 38 6.207 6.207 0 01.82 36.387a6.586 6.586 0 01-.625-1.904 12.99 12.99 0 01-.179-2.002 34.71 34.71 0 01-.011-.63L0 31.56V8.444l.004-.295c.002-.208.005-.417.011-.625.008-.671.068-1.34.18-2.002.11-.663.32-1.305.624-1.904a6.23 6.23 0 011.179-1.62A6.438 6.438 0 013.616.817 6.665 6.665 0 015.517.193a13.215 13.215 0 012.196-.18c.243-.004.484-.008.727-.01C8.806 0 9.168 0 9.535 0zM7.54 39.114c.302.007.6.011.904.011l101.69.002 1.084-.002c.298 0 .604-.004.897-.01a12.533 12.533 0 001.869-.164 5.855 5.855 0 001.668-.55 5.414 5.414 0 001.4-1.022 5.47 5.47 0 001.015-1.386 5.716 5.716 0 00.54-1.67c.103-.613.16-1.232.171-1.853.004-.307.004-.605.004-.93.008-.357.008-.712.008-1.075V9.536c0-.36 0-.717-.008-1.092 0-.302 0-.607-.003-.89a13.116 13.116 0 00-.173-1.887 5.774 5.774 0 00-.536-1.649 5.589 5.589 0 00-2.415-2.42 5.933 5.933 0 00-1.671-.548 12.37 12.37 0 00-1.858-.162l-.913-.013H8.445l-.902.012c-.628.008-1.255.063-1.875.164a5.565 5.565 0 00-4.614 4.626A12.37 12.37 0 00.887 7.55c-.006.203-.015.894-.015.894v23.1s.008.703.015.914c.008.628.063 1.255.166 1.875.095.577.279 1.136.543 1.657.262.518.607.99 1.02 1.397.409.411.88.755 1.398 1.016.522.264 1.08.449 1.656.548.619.1 1.243.155 1.87.163z"/><path d="M24.997 19.89a5.148 5.148 0 012.45-4.318 5.268 5.268 0 00-4.15-2.244c-1.746-.183-3.439 1.045-4.329 1.045-.907 0-2.277-1.027-3.752-.996a5.528 5.528 0 00-4.652 2.836c-2.01 3.482-.51 8.6 1.416 11.414.964 1.379 2.09 2.918 3.564 2.863 1.443-.06 1.981-.92 3.723-.92 1.724 0 2.23.92 3.734.886 1.547-.026 2.523-1.385 3.453-2.776a11.396 11.396 0 001.579-3.216 4.973 4.973 0 01-3.036-4.575zm-2.84-8.413a5.067 5.067 0 001.16-3.63 5.155 5.155 0 00-3.336 1.726 4.822 4.822 0 00-1.19 3.495 4.261 4.261 0 003.366-1.591zM42.303 27.14h-4.734l-1.136 3.356h-2.005l4.483-12.418h2.083l4.483 12.418H43.44l-1.136-3.356zm-4.243-1.55h3.752l-1.85-5.446h-.052l-1.85 5.447zm17.1.38c0 2.813-1.507 4.62-3.78 4.62a3.07 3.07 0 01-2.848-1.583h-.043v4.484h-1.858V21.442h1.799v1.506h.034a3.212 3.212 0 012.883-1.6c2.298 0 3.812 1.816 3.812 4.622zm-1.911 0c0-1.833-.947-3.038-2.393-3.038-1.42 0-2.375 1.23-2.375 3.038 0 1.824.956 3.046 2.375 3.046 1.446 0 2.393-1.197 2.393-3.046zm11.875 0c0 2.813-1.506 4.62-3.778 4.62a3.07 3.07 0 01-2.849-1.583h-.043v4.484h-1.858V21.442h1.799v1.506h.034a3.212 3.212 0 012.883-1.6c2.297 0 3.813 1.816 3.813 4.622zm-1.91 0c0-1.833-.947-3.038-2.393-3.038-1.42 0-2.375 1.23-2.375 3.038 0 1.824.955 3.046 2.375 3.046 1.446 0 2.393-1.197 2.393-3.046zm8.497 1.066c.138 1.232 1.334 2.04 2.969 2.04 1.566 0 2.693-.808 2.693-1.919 0-.964-.68-1.54-2.289-1.936l-1.61-.388c-2.28-.55-3.338-1.617-3.338-3.348 0-2.142 1.867-3.614 4.517-3.614 2.625 0 4.424 1.472 4.485 3.614h-1.876c-.112-1.239-1.137-1.987-2.634-1.987-1.497 0-2.522.757-2.522 1.858 0 .878.655 1.395 2.255 1.79l1.368.336c2.548.603 3.606 1.626 3.606 3.443 0 2.323-1.85 3.778-4.793 3.778-2.754 0-4.613-1.42-4.733-3.667h1.902zM83.348 19.3v2.142h1.721v1.472h-1.721v4.991c0 .776.344 1.137 1.101 1.137a5.81 5.81 0 00.612-.043v1.463c-.34.064-.687.092-1.033.086-1.833 0-2.547-.689-2.547-2.444v-5.19h-1.317v-1.472h1.316V19.3h1.868zm2.716 6.67c0-2.849 1.678-4.639 4.294-4.639 2.625 0 4.295 1.79 4.295 4.639 0 2.856-1.66 4.638-4.295 4.638-2.632 0-4.294-1.782-4.294-4.638zm6.696 0c0-1.954-.896-3.108-2.402-3.108-1.505 0-2.401 1.162-2.401 3.108 0 1.962.896 3.106 2.401 3.106 1.506 0 2.402-1.144 2.402-3.106zm3.426-4.528h1.772v1.541h.043a2.16 2.16 0 012.178-1.635 2.78 2.78 0 01.636.07v1.737a2.593 2.593 0 00-.834-.112 1.872 1.872 0 00-1.937 2.083v5.37h-1.858v-9.053zm13.198 6.395c-.25 1.643-1.851 2.771-3.899 2.771-2.633 0-4.268-1.764-4.268-4.595 0-2.84 1.643-4.682 4.19-4.682 2.505 0 4.08 1.72 4.08 4.466v.637h-6.394v.112a2.353 2.353 0 001.458 2.391c.31.127.643.186.977.173a2.05 2.05 0 002.091-1.273h1.765zm-6.282-2.702h4.526a2.184 2.184 0 00-.608-1.634 2.188 2.188 0 00-1.613-.664 2.292 2.292 0 00-2.305 2.298zM37.827 8.73a2.64 2.64 0 012.808 2.966c0 1.906-1.03 3.002-2.808 3.002h-2.155V8.73h2.155zM36.6 13.855h1.125a1.877 1.877 0 001.967-2.146 1.88 1.88 0 00-1.967-2.134H36.6v4.28zm5.082-1.411a2.134 2.134 0 114.247 0 2.134 2.134 0 11-4.247 0zm3.333 0c0-.976-.439-1.547-1.208-1.547-.773 0-1.207.571-1.207 1.547 0 .984.434 1.55 1.207 1.55.77 0 1.208-.57 1.208-1.55zm6.559 2.254h-.922l-.93-3.317h-.07l-.927 3.317h-.913l-1.242-4.503h.902l.806 3.436h.067l.925-3.436h.853l.926 3.436h.07l.803-3.436h.889l-1.237 4.503zm2.279-4.503h.856v.715h.066a1.348 1.348 0 011.344-.802 1.466 1.466 0 011.559 1.675v2.915h-.889v-2.692c0-.724-.314-1.084-.972-1.084a1.034 1.034 0 00-1.075 1.141v2.635h-.889v-4.503zm5.241-1.758h.888v6.26h-.888v-6.26zm2.125 4.007a2.133 2.133 0 114.248 0 2.134 2.134 0 11-4.248 0zm3.333 0c0-.976-.439-1.546-1.208-1.546-.773 0-1.207.57-1.207 1.546 0 .984.435 1.55 1.207 1.55.77 0 1.208-.57 1.208-1.55zm1.85.98c0-.81.604-1.277 1.675-1.344l1.22-.07v-.389c0-.476-.315-.744-.922-.744-.496 0-.84.182-.939.5h-.86c.091-.773.819-1.27 1.84-1.27 1.129 0 1.766.563 1.766 1.514v3.077h-.856v-.633h-.07a1.516 1.516 0 01-1.353.707 1.36 1.36 0 01-1.5-1.348zm2.895-.384v-.377l-1.1.07c-.62.042-.901.253-.901.65 0 .405.351.64.835.64a1.064 1.064 0 001.166-.983zm2.053-.596c0-1.423.731-2.324 1.869-2.324a1.484 1.484 0 011.38.79h.067V8.437h.889v6.26h-.852v-.71h-.07a1.563 1.563 0 01-1.414.785c-1.146 0-1.87-.901-1.87-2.328zm.918 0c0 .955.45 1.53 1.203 1.53.749 0 1.212-.583 1.212-1.526 0-.938-.468-1.53-1.212-1.53-.748 0-1.203.58-1.203 1.526zm6.962 0a2.134 2.134 0 114.248 0 2.132 2.132 0 11-4.247 0zm3.334 0c0-.976-.439-1.547-1.208-1.547-.773 0-1.207.571-1.207 1.547 0 .984.434 1.55 1.207 1.55.77 0 1.208-.57 1.208-1.55zm2.106-2.249h.855v.715h.067a1.349 1.349 0 011.344-.802 1.465 1.465 0 011.558 1.675v2.915h-.888v-2.692c0-.724-.315-1.084-.972-1.084a1.034 1.034 0 00-1.075 1.141v2.635h-.89v-4.503zm8.847-1.121v1.141h.975v.749h-.975v2.315c0 .472.194.678.636.678.114 0 .227-.007.34-.02v.74c-.16.029-.322.044-.484.046-.989 0-1.382-.348-1.382-1.216v-2.543h-.715v-.749h.715V9.074h.89zm2.188-.637h.88v2.482h.071a1.386 1.386 0 011.373-.807 1.485 1.485 0 011.551 1.678v2.908h-.89V12.01c0-.72-.334-1.084-.962-1.084a1.05 1.05 0 00-1.134 1.142v2.63h-.889V8.437zm9.056 5.045a1.823 1.823 0 01-1.951 1.303 2.048 2.048 0 01-2.01-1.447 2.05 2.05 0 01-.07-.877 2.093 2.093 0 01.071-.88 2.078 2.078 0 012.005-1.473c1.253 0 2.009.856 2.009 2.27v.31h-3.18v.05a1.19 1.19 0 001.2 1.29 1.077 1.077 0 001.071-.546h.855zm-3.126-1.451h2.275a1.094 1.094 0 00-.667-1.083 1.086 1.086 0 00-.442-.084 1.151 1.151 0 00-1.166 1.167z"/></g><defs><clipPath id="clip0_561_2248"><path fill="#fff" d="M0 0h119.664v40H0z"/></clipPath></defs></svg>