<svg width="132" height="21" viewBox="0 0 132 21" fill="none" xmlns="http://www.w3.org/2000/svg"><path d="M11.63 4.69v4.5H3.78V1.83H.27v17.82h3.51v-7.52h7.85v7.52h3.51V1.83h-3.51v2.86zm14.93 2.65c-.72-.3-1.58-.45-2.6-.45a13 13 0 00-1.54.09c-.49.05-.97.12-1.42.23-.46.09-.88.2-1.28.31-.38.12-.73.23-1.04.35l.15 2.76a14.46 14.46 0 012.32-.84c.37-.09.71-.16 1.04-.2.33-.05.64-.07.93-.07.53 0 1 .06 1.41.19.41.12.72.33.94.65.22.32.33.77.3 1.35l-3.56.53c-.49.08-.98.2-1.46.36-.48.17-.91.4-1.31.71-.39.3-.71.69-.95 1.17-.24.47-.36 1.06-.36 1.75 0 .78.16 1.45.47 2.01.33.55.76.97 1.31 1.26.55.29 1.17.44 1.88.44.61 0 1.15-.1 1.62-.29.48-.2.9-.44 1.25-.72.35-.29.64-.59.88-.9h.26l.19 1.62h2.81v-8.39c0-1.03-.19-1.87-.58-2.51-.38-.65-.94-1.12-1.66-1.41zm-.88 8.09c-.21.42-.46.77-.76 1.08-.29.3-.61.53-.95.7-.34.17-.69.25-1.04.25-.43 0-.8-.11-1.14-.32-.33-.23-.49-.61-.49-1.15 0-.33.07-.61.2-.86s.32-.45.56-.61c.25-.16.55-.27.91-.34.63-.12 1.12-.21 1.47-.29.35-.08.61-.14.79-.2.18-.07.33-.14.44-.21v1.96l.01-.01zm13.71-8.55c-.69 0-1.31.12-1.85.35-.53.23-1 .52-1.41.89-.4.36-.74.74-1.01 1.14h-.29l-.12-2.21-2.7.16v12.45h3.18v-7.94c.23-.36.49-.68.77-.96.28-.28.61-.52.96-.69.36-.17.75-.26 1.17-.26.72 0 1.22.21 1.5.62.28.42.42 1.03.42 1.85v7.38h3.17v-8.35c0-1.46-.32-2.56-.95-3.3-.62-.75-1.58-1.12-2.85-1.12l.01-.01zm14.22 6.22c-.57-.27-1.3-.52-2.16-.76-.64-.18-1.13-.35-1.46-.5-.32-.15-.55-.31-.66-.49-.12-.18-.17-.4-.17-.64 0-.29.07-.53.21-.71.15-.18.35-.31.6-.39.25-.08.53-.12.84-.12.28 0 .62.04 1.04.12.42.08.85.21 1.3.38.45.16.87.36 1.25.6l.22-2.81c-.3-.14-.67-.28-1.12-.41-.44-.14-.93-.25-1.47-.34-.54-.09-1.1-.14-1.67-.14-1.36 0-2.44.34-3.24 1.02-.8.68-1.2 1.65-1.2 2.9 0 .74.13 1.35.4 1.81.28.47.67.85 1.18 1.14.52.28 1.13.52 1.84.7.71.18 1.27.35 1.67.49.41.14.7.3.88.46.18.17.28.38.28.64 0 .38-.09.66-.28.85-.17.19-.41.32-.71.39-.3.06-.63.09-1 .09-.48 0-.95-.04-1.44-.12-.48-.09-.95-.22-1.4-.38-.44-.17-.85-.36-1.22-.59l-.21 2.8c.35.17.76.32 1.23.45s.97.24 1.5.31c.54.08 1.1.11 1.67.11 1.21 0 2.18-.17 2.92-.51.75-.34 1.3-.81 1.64-1.41.35-.6.52-1.3.52-2.1 0-.75-.15-1.34-.44-1.78-.29-.44-.73-.8-1.31-1.06h-.03zm14.921-4.35c-.54-.59-1.22-1.05-2.02-1.38-.8-.33-1.73-.5-2.8-.5-1.38 0-2.56.28-3.52.85a5.59 5.59 0 00-2.19 2.33c-.5.97-.75 2.08-.75 3.33 0 .87.13 1.7.4 2.49.27.79.67 1.5 1.21 2.11.54.62 1.22 1.1 2.04 1.46.82.35 1.78.52 2.88.52 1.35 0 2.5-.29 3.46-.86.96-.58 1.69-1.37 2.19-2.36.51-.99.76-2.11.76-3.36 0-.92-.14-1.77-.41-2.55-.28-.79-.69-1.48-1.24-2.08h-.01zm-1.94 6.55c-.23.6-.59 1.09-1.06 1.47-.47.38-1.06.56-1.77.56s-1.33-.19-1.83-.56c-.48-.38-.85-.88-1.09-1.47-.24-.6-.36-1.24-.36-1.92 0-.73.12-1.38.36-1.96.25-.58.62-1.05 1.1-1.39.49-.35 1.09-.52 1.8-.52.64 0 1.2.16 1.69.47.48.31.85.75 1.11 1.34.27.57.4 1.26.4 2.06 0 .68-.12 1.32-.35 1.92zM72.92 4.29v15.36h3.17V1.04l-3.17.3v2.95z" fill="#000"/><path d="M87.74 4.3v4.21h-.28c-.23-.33-.52-.61-.86-.85-.33-.25-.72-.44-1.15-.58-.43-.14-.91-.21-1.44-.21-1.11 0-2.05.29-2.81.86-.77.57-1.35 1.35-1.74 2.34-.39.98-.59 2.09-.59 3.32 0 1.16.18 2.24.55 3.24.37 1 .93 1.8 1.69 2.41.76.61 1.71.91 2.86.91.55 0 1.05-.08 1.51-.22.46-.15.88-.37 1.25-.66.38-.29.72-.65 1.04-1.09h.24l.19 1.66h2.71V1.04l-3.17.3V4.3zm0 11.33c-.19.32-.41.61-.66.85-.25.24-.54.43-.86.56-.32.12-.69.19-1.09.19-.69 0-1.26-.18-1.7-.54-.44-.37-.77-.84-.99-1.41-.21-.58-.31-1.19-.31-1.85 0-.69.11-1.32.33-1.89.22-.58.56-1.03 1-1.38.45-.35 1.02-.52 1.7-.52.34 0 .67.05.99.16.32.1.62.25.89.45.28.19.51.43.71.71v4.66l-.01.01zm14.44-8.13c-.78-.41-1.73-.61-2.84-.61-1.28 0-2.37.27-3.25.82-.88.55-1.55 1.32-2.01 2.3-.45.97-.68 2.1-.68 3.36 0 1.26.24 2.41.71 3.4.47.99 1.21 1.77 2.21 2.34 1 .57 2.28.85 3.85.85.61 0 1.18-.04 1.7-.11s1-.16 1.42-.29c.42-.13.8-.27 1.11-.43l-.1-2.72c-.39.21-.81.38-1.26.51-.45.13-.9.23-1.34.3-.43.06-.83.09-1.17.09-.9 0-1.65-.15-2.24-.46-.59-.32-1.03-.76-1.31-1.34-.21-.44-.32-.97-.37-1.54h7.92c.04-.25.07-.5.08-.76.02-.26.02-.55.02-.88 0-1.22-.21-2.22-.64-3.02-.43-.81-1.03-1.41-1.83-1.81h.02zm-4.26 2.2c.42-.32.9-.48 1.45-.48.72 0 1.32.26 1.77.79.41.46.62 1.08.67 1.85l-5.16.09c.06-.34.15-.66.28-.95.24-.56.57-.99.99-1.3zm15.361-.1a5.923 5.923 0 011.99.37c.4.14.84.35 1.31.61l.25-2.78a6.12 6.12 0 00-1.15-.47 8.889 8.889 0 00-2.82-.44c-1.38 0-2.53.29-3.46.86-.93.57-1.62 1.35-2.1 2.34-.47.98-.71 2.1-.71 3.35s.25 2.35.75 3.32a5.65 5.65 0 002.21 2.31c.98.56 2.16.84 3.55.84.55 0 1.05-.03 1.51-.1.46-.06.87-.14 1.24-.24.38-.11.7-.23.99-.36l-.19-2.77c-.29.19-.6.35-.91.47a5.704 5.704 0 01-1.94.35c-.88 0-1.61-.17-2.2-.5-.58-.34-1.02-.8-1.32-1.39-.3-.59-.45-1.27-.45-2.03 0-1.15.31-2.06.94-2.74.63-.67 1.47-1.01 2.52-1.01l-.01.01zm18.039 1.23c-.28-.79-.69-1.48-1.24-2.08-.54-.59-1.22-1.05-2.02-1.38-.8-.33-1.73-.5-2.8-.5-1.38 0-2.56.28-3.53.85a5.59 5.59 0 00-2.19 2.33c-.5.97-.75 2.08-.75 3.33 0 .87.13 1.7.4 2.49.27.79.67 1.5 1.21 2.11.54.61 1.22 1.1 2.04 1.46.82.35 1.77.52 2.88.52 1.35 0 2.5-.29 3.46-.86.96-.58 1.69-1.37 2.19-2.36.51-.99.76-2.11.76-3.36 0-.92-.14-1.77-.41-2.55zm-3.17 4.47c-.23.6-.59 1.09-1.06 1.47-.47.38-1.06.56-1.77.56s-1.33-.19-1.83-.56c-.48-.38-.85-.88-1.09-1.47-.24-.6-.36-1.24-.36-1.92 0-.73.12-1.38.36-1.96.25-.58.62-1.05 1.1-1.39.49-.35 1.09-.52 1.8-.52.64 0 1.2.16 1.69.47.48.31.85.75 1.11 1.34.27.57.4 1.26.4 2.06 0 .68-.12 1.32-.35 1.92z" fill="#999"/></svg>