<svg width="113" height="37" viewBox="0 0 113 37" fill="none" xmlns="http://www.w3.org/2000/svg"><g clip-path="url(#clip0_302_1544)"><path d="M81.691 19.014c3.482-.83 6.017-3.43 6.23-6.76h-5.75v-1.168h8.198c.014 1.466-.293 2.78-.86 3.914h3.829v-4.51h2.348v11.212h-2.348v-5.493h-4.556c-1.568 2.13-4.096 3.436-6.717 3.848l-.374-1.035v-.007zm4.983 5.566c0 .299 0 .584.6.584h8.852v1.168h-10.56c-1.18 0-1.18-.85-1.18-1.453V21.05h2.295v3.53h-.007zm17.436-13.162c0 2.813 2.001 4.962 4.028 5.898l-.78.915c-1.194-.371-3.168-1.559-4.416-3.343-1.227 1.79-3.201 2.972-4.429 3.343l-.767-.915c1.995-.936 3.949-3.025 3.949-5.845v-.796h2.421v.743h-.006zm5.829 10.873v-1.77h-9.191v-1.188h11.506v4.093h-9.192v1.347c0 .265.107.411.414.411h9.025v1.174h-10.293c-.947 0-1.447-.57-1.447-1.433v-2.627h9.178v-.006zm2.315-11.809v8.041h-2.328V14.47h-3.242v-1.175h3.242v-2.813h2.328zm-35.826 0v15.87h2.381v-15.87h-2.38zm-3.815 5.726H69.61v1.42h3.002v3.337a4.86 4.86 0 01-1.888.351H67.33a.568.568 0 01-.567-.577v-7.895h4.349v-1.148h-6.817v9.62c0 .63.507 1.141 1.134 1.141h5.296c.807 0 1.454-.146 1.888-.41v4.298h2.381V10.482h-2.381v5.726zm-17.871 2.654v-1.56h5.25v-1.14h-9.886a.572.572 0 01-.573-.57v-1.003h10.245v-3.841H47.072v1.141h10.245v1.553H47.072v2.706c0 .637.513 1.148 1.147 1.148h4.062v1.56h-6.537v1.14h15.589v-1.14h-6.577l-.014.006zm.067 1.87h-2.761c-.734 3.02-4.33 4.539-5.644 4.724l.688 1.015c1.347-.165 4.415-1.26 6.336-3.35 1.921 2.09 4.99 3.185 6.337 3.35l.694-1.015c-1.321-.192-4.916-1.711-5.643-4.723h-.007zM26.76 33.862c-4.216 4.186-11.106 4.186-15.322 0l-7.784-7.743c-4.216-4.193-4.216-11.046 0-15.239l7.784-7.742c4.216-4.187 11.106-4.187 15.322 0l7.784 7.742c4.215 4.193 4.215 11.046 0 15.24l-7.784 7.742z" fill="#ED1C24"/><path d="M14.486 29.875a1.144 1.144 0 01-.046-2.29 1.152 1.152 0 011.2 1.095 1.14 1.14 0 01-1.1 1.188h-.047l-.007.007zm4.189-21.131c-.633 0-1.14.199-1.547.604-.88.875-1.348 2.673-1.308 5.068.047 2.953.76 8.751 3.096 11.736.38.485.787.87 1.213 1.148.414.272.874.538 1.595.538.193 0 .407-.02.627-.06 1.34-.319 3.021-1.805 4.269-3.775a1.04 1.04 0 01.873-.478c.194 0 .387.053.547.16a1 1 0 01.454.643c.06.265.013.544-.134.776-1.58 2.495-3.661 4.253-5.576 4.69l-.046.014c-.354.066-.694.1-1.021.1-1.234 0-2.101-.465-2.721-.876a7.243 7.243 0 01-1.701-1.6c-3.289-4.199-3.516-12.08-3.529-12.963-.033-2.096.267-4.936 1.914-6.561.8-.796 1.808-1.194 2.995-1.194h.194c1.187 0 2.194.404 2.995 1.194 1.647 1.625 1.947 4.465 1.914 6.561-.04 2.183-.44 6.416-2.715 10.21a1.048 1.048 0 01-.887.498 1.03 1.03 0 01-.887-1.552c1.594-2.654 2.361-5.573 2.428-9.189.04-2.395-.42-4.2-1.307-5.069-.407-.404-.914-.603-1.541-.603h-.18l-.014-.02z" fill="#fff"/></g><defs><clipPath id="clip0_302_1544"><path fill="#fff" transform="translate(.5)" d="M0 0h112v37H0z"/></clipPath></defs></svg>