<svg width="113" height="37" viewBox="0 0 113 37" fill="none" xmlns="http://www.w3.org/2000/svg"><path d="M4.26 9.856L2.96 8.4C1.362 11.164.45 14.373.45 17.639h.898c0-3.055 1.05-5.833 2.911-7.783z" fill="url(#paint0_linear_302_1521)"/><path d="M4.026 24.177c-1.631-1.567-2.677-3.69-2.677-6.52v-.013H.45c0 3.319.585 6.405 1.735 9.095l1.84-2.558v-.004z" fill="url(#paint1_linear_302_1521)"/><path d="M32.62 15.284l-1.67 1.748c2.312.035 3.731 1.844 3.68 4.155h.897c0-2.28-1.054-4.349-2.911-5.903h.004z" fill="url(#paint2_linear_302_1521)"/><path d="M35.532 21.187h-.898c-.044 1.902-1.046 3.496-3.263 4.68l2.343 3.275c1.14-2.144 1.818-4.772 1.818-7.955z" fill="url(#paint3_linear_302_1521)"/><path d="M5.197 14.98a5.96 5.96 0 00-.1 1.088c0 5.44 3.996 8.919 9.047 8.919 9.594 0 12.444-7.955 16.74-7.955h.065l1.67-1.748c-2.073-1.73-5.15-2.817-8.881-2.817-7.598 0-11.642 6.436-15.092 6.436-1.5 0-2.65-1.673-2.65-3.293 0-.167.012-.33.025-.493l-.828-.141.004.004z" fill="url(#paint4_linear_302_1521)"/><path d="M11.142 6.995c5.545 0 9.394 4.257 14.345 4.257 5.935 0 9.216-2.932 10.04-8.664l-.898-.15c-.252 1.519-1.224 3.342-2.972 3.342-1.65 0-3.398-1.47-5.945-2.888-2.551-1.47-5.476-2.888-9.12-2.888-5.871 0-10.822 3.508-13.638 8.39l1.302 1.458c1.683-1.77 4.035-2.857 6.886-2.857z" fill="url(#paint5_linear_302_1521)"/><path d="M16.939 28.178c-4.296 0-9.724-.942-12.913-4.001l-1.84 2.558c2.647 6.176 8.296 10.261 16.753 10.261 5.593 0 11.776-2.245 14.77-7.853l-2.343-3.276c-2.755 1.47-7.394 2.311-14.427 2.311z" fill="url(#paint6_linear_302_1521)"/><path d="M53.848 27.712c-5.554 0-8.622-3.703-8.622-9.183 0-5.481 3.324-9.24 8.726-9.24 2.156 0 3.957.514 5.35 1.311l-.582 3.834c-1.319-.85-2.868-1.514-4.668-1.514-3.02 0-4.487 2.263-4.487 5.582 0 3.32 1.523 5.688 4.539 5.688.963 0 1.648-.18 2.36-.568v-3.165h-3.041l-.508-3.267h7.333v8.646c-1.827 1.21-3.983 1.876-6.392 1.876m14.702-.128c-2.36 0-4.335-.515-6.114-1.338l.633-3.755c1.801.977 3.806 1.646 5.554 1.646 1.241 0 2.105-.541 2.105-1.594 0-1.052-.508-1.47-2.968-2.42-3.497-1.366-5.02-2.523-5.02-5.455 0-3.42 2.638-5.248 5.983-5.248 2.287 0 3.758.44 5.276 1.184l-.66 3.707c-1.57-.929-3.219-1.44-4.564-1.44-1.345 0-1.952.564-1.952 1.387 0 .898.481 1.339 2.66 2.188 3.809 1.413 5.328 2.752 5.328 5.582 0 3.861-2.79 5.556-6.266 5.556" fill="#0071B5"/><path d="M94.44 21.729V9.737h-1.88v4.284h-3.94v1.712h3.94v5.996h1.88zm-5.386-11.613h-8.5v1.712h6.174c-.902 3.557-3.657 5.384-7.259 6.26l.898 1.466c4.205-1.105 8.088-3.654 8.687-9.443v.005zm-4.187 10.473h-1.875v5.71c0 .515.434.95.937.95h10.696v-1.712h-9.758v-4.953.005zm27.592-2.096V9.737h-1.874v2.382h-3.94v1.712h3.94v4.662h1.874zm-10.093-3.597c1.106 1.713 2.851 2.858 4.73 3.43l.902-1.448c-2.569-.744-4.651-2.246-4.651-5.56V9.93h-1.953v1.386c0 3.315-2.083 4.817-4.651 5.56l.898 1.449c1.874-.572 3.619-1.713 4.729-3.43h-.004zm.338 9.06h9.754v-4.701H100.73v1.655h9.854v1.484h-9.759v3.905c0 .515.43.95.938.95h10.786v-1.655H102.7v-1.638h.004z" fill="#888F95"/><defs><linearGradient id="paint0_linear_302_1521" x1="4.781" y1="10.354" x2="-.62" y2="15.677" gradientUnits="userSpaceOnUse"><stop stop-color="#F5B721"/><stop offset="1" stop-color="#C1BD3A"/></linearGradient><linearGradient id="paint1_linear_302_1521" x1="-.686" y1="19.695" x2="3.945" y2="24.259" gradientUnits="userSpaceOnUse"><stop stop-color="#C1BD3A"/><stop offset="1" stop-color="#81BF46"/></linearGradient><linearGradient id="paint2_linear_302_1521" x1="31.7" y1="16.248" x2="35.636" y2="20.131" gradientUnits="userSpaceOnUse"><stop stop-color="#71CAEE"/><stop offset="1" stop-color="#00B5C3"/></linearGradient><linearGradient id="paint3_linear_302_1521" x1="36.347" y1="22.953" x2="32.373" y2="26.875" gradientUnits="userSpaceOnUse"><stop stop-color="#00B5C3"/><stop offset="1" stop-color="#00A39A"/></linearGradient><linearGradient id="paint4_linear_302_1521" x1="7.028" y1="18.727" x2="30.884" y2="18.727" gradientUnits="userSpaceOnUse"><stop stop-color="#0071B5"/><stop offset="1" stop-color="#71CAEE"/></linearGradient><linearGradient id="paint5_linear_302_1521" x1="2.954" y1="5.63" x2="35.531" y2="5.63" gradientUnits="userSpaceOnUse"><stop stop-color="#F5B721"/><stop offset=".58" stop-color="#F0852A"/><stop offset="1" stop-color="#ED6630"/></linearGradient><linearGradient id="paint6_linear_302_1521" x1="4.03" y1="30.587" x2="31.366" y2="30.587" gradientUnits="userSpaceOnUse"><stop stop-color="#81BF46"/><stop offset="1" stop-color="#00A39A"/></linearGradient></defs></svg>