<svg width="109" height="43" viewBox="0 0 109 43" fill="none" xmlns="http://www.w3.org/2000/svg"><g clip-path="url(#clip0_302_1581)"><path d="M101.151 23.055c4.073-.242 7.329-3.419 7.588-7.396V0H7.903C3.816.22.543 3.39.26 7.364v15.691h100.89z" fill="#A32B58"/><path d="M96.37 10.74l-3.962.003c-.346 0-.404.204-.404.453 0 .46 1.264 1.03 1.781 1.03h.948c.249.033.292.217.292.319v1.454c0 .111-.05.324-.373.324h-3.444c-.265-.013-.632-.196-.652-.403V8.922c.02-.216.42-.407.69-.407h4.25c.52 0 1.78-.574 1.78-1.03 0-.25-.053-.453-.402-.453h-6.821c-.69.017-1.913.624-1.913 1.201v6.373c0 .577 1.217 1.184 1.912 1.2l6.314-.002c.655 0 1.069-.486 1.069-1.077v-2.914c0-.59-.414-1.076-1.069-1.076l.004.003zM28.301 7.33a.59.59 0 00-.544-.324h-2.158a.584.584 0 00-.54.325c-1.059 2.3-3.71 8.148-3.71 8.148-.131.24-.125.403.282.393.5-.01 2.067-.489 2.38-1.197.053-.125.17-.381.325-.729h4.691c.155.348.272.604.326.729.313.708 1.878 1.188 2.379 1.197.403.01.413-.157.282-.393 0 0-2.651-5.848-3.71-8.148h-.003zm-3.31 5.156c.518-1.136 1.146-2.52 1.687-3.702.541 1.182 1.17 2.563 1.687 3.702h-3.374zm17.913-5.592c.48-.144 2.648.384 3.172.958.373.41 1.038 1.133 1.95 2.1a268.71 268.71 0 001.948-2.1c.521-.574 2.692-1.102 3.172-.958.387.118.34.28.138.463 0 0-2.288 2.47-4.039 4.322v3.284c0 .591-1.418 1.198-1.949 1.198-.403 0-.467-.18-.467-.394v-4.069s-.01-.006-.014-.013a688.536 688.536 0 01-4.045-4.328c-.202-.184-.249-.345.137-.463h-.003zm-2.489 7.436h-4.241c-.269 0-.669-.19-.689-.41v-1.854h3.663c.52 0 1.784-.571 1.784-1.03 0-.247-.054-.453-.403-.453h-5.044V8.906c.02-.22.423-.407.692-.407h3.566c.52 0 1.784-.574 1.784-1.03 0-.25-.054-.453-.403-.453-.229 0-6.123 0-6.136.003-.693.016-1.912.623-1.912 1.201v6.389c0 .578 1.22 1.185 1.912 1.201h.003c.548.003 6.455.003 6.805.003.35 0 .406-.203.406-.453 0-.459-1.267-1.033-1.784-1.033l-.003.003zM11.56 7.472c0-.25.057-.453.403-.453h10.3c.345 0 .406.203.406.453 0 .459-1.264 1.03-1.785 1.03H18.32v6.461c0 .59-1.421 1.198-1.952 1.198-.4 0-.464-.18-.464-.394V8.502h-2.563c-.518 0-1.785-.571-1.785-1.03h.004zm63.037-.449c-.531 0-1.95.61-1.95 1.197v5.71c-.023.22-.423.41-.692.41-1.169 0-2.365-.01-2.365-.01-.79 0-1.425-.623-1.425-1.391v-5.52c0-.216-.067-.396-.467-.396-.531 0-1.952.61-1.952 1.197v4.735h.006c.058 1.562 1.351 2.816 2.954 2.859l4.402.01h.037c.696-.02 1.912-.624 1.912-1.205V7.423c0-.217-.064-.397-.464-.397l.004-.003zM86.254 9.74c-.135-1.49-1.395-2.661-2.947-2.7h-4.439c-.692.016-1.915.623-1.915 1.2v7.196c0 .217.067.394.467.394.53 0 1.949-.607 1.949-1.198V8.926c.023-.217.423-.407.692-.407h2.366c.786 0 1.424.624 1.424 1.391v5.526c0 .217.064.394.467.394.531 0 1.95-.607 1.95-1.198V9.733h-.014v.007zM60.912 7.029c-.016 0-4.425-.01-4.442-.007-.692.02-1.912.627-1.912 1.205 0 0 .007 4.843.014 4.886.134 1.49 1.397 2.66 2.947 2.697l4.439.006c.692-.02 1.912-.623 1.912-1.204v-2.487s-.004-2.356-.014-2.399c-.138-1.49-1.398-2.661-2.95-2.7l.006.003zm-.144 7.308c-1.17 0-2.37-.01-2.37-.01-.785 0-1.424-.624-1.424-1.392V8.91c.024-.216.42-.407.689-.407 1.166 0 2.366.007 2.366.007.786 0 1.424.623 1.424 1.391v4.023c-.023.22-.42.41-.688.41l.003.004z" fill="#fff"/><path d="M83.11 31.479c0-.683-.49-1.106-1.29-1.106h-4.661v1.28H80.8c.387 0 .444.092.444.4 0 3.328-4.86 4.407-4.91 4.42l.73 1.057c.087 0 6.045-.952 6.045-6.048v-.003zm10.423 2.848c.883 1.71 2.698 2.08 3.27 2.07.02-.01.83-1.086.83-1.086-.031 0-3.092-.266-3.186-3.386v-1.611h-1.835v1.778c-.192 2.963-3.149 3.213-3.179 3.216l.81 1.073c.591.02 2.406-.348 3.29-2.06v.006zm-5.875 6.73h-6.321c-.229 0-.393-.178-.393-.427v-2.825H79.23v2.812c0 1.152.554 1.736 1.673 1.736h6.758v-1.296h-.003zm13.546-.666l.007-3.245h-8.43v1.283h6.736v.682H92.74v1.664c0 1.135.588 1.736 1.697 1.736h6.885v-1.296h-6.448c-.229 0-.397-.178-.397-.424v-.397h6.727v-.003zm-15.449-1.533h1.694v-8.88c0-.144-.04-.294-.343-.294-.356 0-1.35.416-1.35.84v2.835h-2.43v1.283h2.43v4.22-.004z" fill="#58595B"/><path d="M99.517 36.597h1.694v-6.615c0-.145-.04-.296-.343-.296-.359 0-1.35.417-1.35.84v2.196h-2.92v1.283h2.92V36.6v-.003zM69.702 43c2.11 0 3.824-1.46 3.824-3.26 0-1.797-1.717-3.258-3.824-3.258-2.107 0-3.824 1.46-3.824 3.259 0 1.798 1.714 3.258 3.824 3.258zm0-5.205c1.132 0 2.053.873 2.053 1.95 0 1.076-.92 1.948-2.053 1.948-1.132 0-2.053-.872-2.053-1.949 0-1.076.92-1.949 2.053-1.949z" fill="#58595B"/><path d="M73.27 29.706c-.36 0-1.35.388-1.35.808v.935h-2.75c-.594-.998-1.743-1.621-2.98-1.621-1.912 0-3.468 1.463-3.468 3.262 0 1.798 1.556 3.261 3.468 3.261 1.109 0 2.157-.502 2.813-1.352h2.916v1.517h1.694v-6.517c0-.145-.04-.296-.343-.296v.003zm-3.636 3.026h2.285v.994h-2.328c.043-.206.07-.42.07-.633l-.023-.358-.004-.003zm-3.444-1.588c.958 0 1.737.873 1.737 1.946s-.78 1.946-1.737 1.946c-.958 0-1.74-.873-1.74-1.946s.779-1.946 1.74-1.946zm-6.33-1.437c-.343 0-1.294.4-1.294.804v3.262h-1.122v-3.784c0-.14-.037-.282-.33-.282-.342 0-1.296.4-1.296.804v7.108l-.662.15a6.319 6.319 0 01-.992.07h-2.806c-.228 0-.393-.178-.393-.424v-1.867h3.256v-1.283h-3.256v-2.268h3.475v-1.296h-5.188V37.4c0 1.155.56 1.739 1.67 1.739h2.691c.548 0 .998-.02 1.334-.056.269-.03.538-.079.867-.164v3.593h1.627V35.06h1.122v7.452h1.63l-.007-12.519c0-.13-.037-.282-.33-.282l.004-.003z" fill="#58595B"/></g><defs><clipPath id="clip0_302_1581"><path fill="#fff" transform="translate(.261)" d="M0 0h108.477v43H0z"/></clipPath></defs></svg>