<svg width="119" height="23" viewBox="0 0 119 23" fill="none" xmlns="http://www.w3.org/2000/svg"><g clip-path="url(#clip0_302_1574)"><path d="M22.525 0H1.915C1.136 0 .5.624.5 1.39v20.22c0 .766.636 1.39 1.416 1.39h20.61c.784 0 1.415-.624 1.415-1.39V1.39c0-.766-.636-1.39-1.416-1.39zm-3.313 16.683c-.447 1.692-1.776 2.315-3.741 2.452H5.869V6.548l2.72-2.66v12.71h5.712c1.136-.033 1.757-.236 1.998-1.351 0-.671 0-1.352-.034-2.027-.091-.477-.414-1.05-1.17-1.115h-2.773l-.034 3.883H9.346V3.866c.655 0 5.23.033 5.99.033 2.34.038 3.308 1.002 3.54 2.73.076.591.177 1.144-.01 2.226-.246 1.011-1.05 1.692-2.186 1.96 2.48.308 2.6 1.966 2.701 3.148.067.708-.024 2.244-.164 2.716m-3.313-8.703c.024 1.092-.414 1.824-1.675 1.8-.285-.009-1.681 0-1.941 0V6.43h2.172c1.083.076 1.42.407 1.444 1.545z" fill="#AC1524"/><path d="M84.813 11.24a18.697 18.697 0 01-6.264 3.322l-.106.033-1.411-2.58.14-.057c6.64-2.64 8.017-5.315 8.407-7.148H78.49V2.046h10.122c.236 0 .394.047.5.156.183.18.183.482.179 1.02v.307c0 3.402-2.437 6.076-4.484 7.716m.434 7.725v-4.267h-3.655v5.524c0 1.337.41 1.724 1.815 1.724H96.28v-2.788H85.492c-.23 0-.25-.09-.25-.193zm7.406-11.755h-3.804v2.768h3.804v6.138h3.63V.85h-3.63v6.364zm-50.956 5.594h-7.343c-1.652 0-2.033-.321-2.033-1.706V1.82h3.655v3.09h4.05V1.82h3.655v9.346c0 1.237-.482 1.639-1.984 1.639M40.02 7.659h-4.05v2.23c0 .123.039.194.227.194h3.597c.192 0 .226-.071.226-.194v-2.23zm-1.498 11.306V14.7h-3.655v5.523c0 1.337.415 1.724 1.84 1.724h12.9V19.16H38.774c-.231 0-.25-.09-.25-.194zM49.613.85h-3.655v15.134h3.655V9.93h3.5V7.144h-3.5V.85zm16.748 12.592h6.1v-2.769H60.463c-.255 0-.274-.108-.274-.217V4.852h12.274V2.065H56.509v9.473c0 1.28.698 1.904 2.128 1.904h4.069v3.662H53.47v2.787h22.15v-2.787h-9.26v-3.662zM114.87.85v3.426h-4.281V7.02h4.281v5.013h3.63V.85h-3.63zm-7.7 18.8v-.77h9.438c1.512 0 1.839-.274 1.839-1.55v-2.938c0-1.2-.423-1.55-1.887-1.55h-12.997v2.655h11.177c.096 0 .13.033.13.132v.704h-11.302v4.508c0 1.086.26 1.573 1.815 1.573H118.5V19.76h-11.17c-.154 0-.154-.062-.154-.109m-.91-11.467c1.228 1.654 3.419 3.071 5.099 3.756l.106.043 1.632-2.414-.13-.071c-1.839-.988-4.28-2.769-5.152-4.55.265-.978.453-2.528.453-3.785v-.137h-3.583v.137c.034 3.903-1.738 6.724-5.571 8.869l-.14.08 1.931 2.362.101-.052c1.791-.935 4.161-2.636 5.258-4.238" fill="#241F59"/></g><defs><clipPath id="clip0_302_1574"><path fill="#fff" transform="translate(.5)" d="M0 0h118v23H0z"/></clipPath></defs></svg>