<svg width="127" height="15" viewBox="0 0 127 15" fill="none" xmlns="http://www.w3.org/2000/svg"><g clip-path="url(#clip0_302_1605)"><path d="M48.428 0H45.99v14.993h2.438V0zM9.629.004v5.14H6.15V.003H.5v14.99h5.65v-5.14h3.48v5.14h5.652V.004H9.63zM22.987.003h-5.651v14.99h2.825l2.826-4.924V.003z" fill="#000"/><path d="M22.988 10.07l-2.826 4.923h9.689V10.07h-6.863z" fill="#00B4ED"/><path d="M55.12 13.13V9.838h-2.343v5.155h10.904V13.13H55.12zM57.191 2.6a3.268 3.268 0 00-1.36-1.265c-.584-.297-1.24-.447-1.968-.447-.73 0-1.392.15-1.965.447A3.22 3.22 0 0050.563 2.6c-.318.548-.473 1.18-.473 1.899 0 .718.162 1.311.483 1.853a3.41 3.41 0 001.342 1.276c.573.31 1.222.463 1.95.463.73 0 1.385-.153 1.965-.463a3.465 3.465 0 001.361-1.276c.328-.542.494-1.162.494-1.853 0-.692-.162-1.351-.49-1.9m-1.888 2.84c-.14.257-.335.453-.587.593a1.69 1.69 0 01-.857.2 1.602 1.602 0 01-.852-.2 1.425 1.425 0 01-.563-.594c-.132-.257-.199-.567-.199-.936 0-.369.067-.708.2-.982.132-.274.32-.486.562-.627a1.67 1.67 0 01.852-.212c.324 0 .606.072.857.212.252.14.448.35.587.627.139.277.208.603.208.982 0 .378-.07.679-.208.936zm5.133.711h1.016v5.09h2.226V.004h-2.226V4.27H60.44V.003h-2.19v10.843h2.19V6.15zm54.16 2.787v-2.02h5.134v-5.69h-7.519V3.06h5.15V5.1h-5.134l.004 6.092 8.317-.398.04-.004V8.65l-5.992.287zm9.786-3.27V.003h-2.445v14.99h2.445v-7.3h2.113V5.668h-2.113zm-86.28 3.417V3.305h5.31V1.36h-7.834v9.979l8.294-.399.04-.003v-2.14l-5.81.287zm62.932.183c.715 0 1.354-.144 1.924-.428a3.301 3.301 0 001.335-1.177c.321-.5.483-1.07.483-1.71 0-.64-.158-1.247-.48-1.753-.255-.404-.616-.714-1.033-.972h2.375V1.534h-3.505V0h-2.173v1.537h-3.487V3.23h2.341c-.41.258-.765.568-1.013.973-.312.506-.467 1.09-.467 1.752 0 .662.159 1.21.473 1.71.315.499.756.89 1.312 1.178.56.284 1.196.427 1.911.427m1.295-2.525a1.24 1.24 0 01-.526.499 1.565 1.565 0 01-.769.166 1.52 1.52 0 01-.765-.166 1.278 1.278 0 01-.507-.5c-.119-.215-.178-.479-.178-.789 0-.31.06-.597.178-.832a1.2 1.2 0 01.507-.529c.215-.12.47-.18.765-.18.295 0 .544.06.769.18.225.121.401.297.526.529.126.235.189.509.189.832 0 .323-.063.574-.189.79zm-1.457 3.791h-2.173V15h10.583v-1.726h-8.41v-2.738zm7.837-5.913l-.004.013V.003h-2.252V11.4h2.252v-.004h.004V6.402h2.09V4.623h-2.09zM94.613 0H92.19v14.99h2.422V0zm-8.386 1.54c-2.683 0-4.485 1.919-4.485 4.774s1.802 4.803 4.485 4.803c2.683 0 4.485-1.928 4.485-4.803S88.91 1.54 86.227 1.54zm0 7.727c-1.259 0-2.014-1.103-2.014-2.953 0-1.85.772-2.94 2.014-2.94 1.242 0 2.014 1.126 2.014 2.94s-.752 2.953-2.014 2.953zM70.065 1.54c-2.683 0-4.485 1.919-4.485 4.774s1.802 4.803 4.485 4.803c2.683 0 4.485-1.928 4.485-4.803S72.748 1.54 70.065 1.54zm0 7.727c-1.262 0-2.014-1.103-2.014-2.953 0-1.85.772-2.937 2.014-2.937 1.242 0 2.014 1.126 2.014 2.937 0 1.81-.752 2.953-2.014 2.953zm8.404-3.6V.003h-2.442v14.99h2.442v-7.3h2.113V5.668h-2.113z" fill="#000"/></g><defs><clipPath id="clip0_302_1605"><path fill="#fff" transform="translate(.5)" d="M0 0h126v15H0z"/></clipPath></defs></svg>