<svg width="128" height="36" viewBox="0 0 128 36" fill="none" xmlns="http://www.w3.org/2000/svg"><path d="M14.766 18.43c-.491-4.536 4.19-8.18 10.46-8.125 6.27.05 11.752 3.767 12.243 8.298.491 4.542-4.19 8.174-10.46 8.125-6.27-.043-11.752-3.761-12.243-8.298zm23.873 1.41c-.563-5.626-6.876-10.236-14.092-10.298-7.222-.062-12.607 4.45-12.043 10.076.564 5.626 6.876 10.237 14.092 10.298 7.217.056 12.613-4.45 12.043-10.076z" fill="#FBB584"/><path d="M27.743 30.027c-3.553 3.773-9.26 4.087-12.746.701-3.481-3.385-3.427-9.183.133-12.95 3.553-3.767 9.266-4.081 12.74-.702 3.481 3.385 3.426 9.184-.133 12.95M14.566 17.655c-4.13 4.383-4.196 11.123-.152 15.057 4.045 3.933 10.679 3.57 14.809-.813 4.135-4.383 4.202-11.123.151-15.056-4.044-3.933-10.678-3.57-14.814.813" fill="#F89B6C"/><path d="M14.954 3.54c7.392-2.813 14.705.03 16.33 6.352 1.625 6.322-3.05 13.733-10.442 16.54-7.392 2.813-14.705-.03-16.33-6.352-1.625-6.322 3.05-13.727 10.442-16.54zM8.089 5.96C.42 12.12-1.534 21.057 3.73 25.908c5.264 4.856 15.742 3.791 23.42-2.376 7.67-6.162 9.623-15.093 4.36-19.95C26.245-1.267 15.76-.209 8.096 5.96" fill="#F37321"/><path d="M45.401 18.098c0 1.138.146 2.29.431 3.477.291 1.2.782 2.37 1.492 3.478h-1.535c-.654-.88-1.133-1.92-1.455-3.133a14.17 14.17 0 01-.497-3.816c0-1.348.158-2.616.497-3.835.322-1.2.8-2.259 1.455-3.133h1.535a11.7 11.7 0 00-1.492 3.478c-.291 1.2-.43 2.37-.43 3.496v-.012zm11.625 2.388h-4.354v3.706H50.75v-3.706h-4.336v-1.397h10.612v1.397zM56.05 13.5h-3.33a3.66 3.66 0 001.232 2.308c.703.615 1.473.942 2.304.972v1.367c-1.28 0-2.432-.376-3.426-1.108a4.249 4.249 0 01-1.104-1.139 5.507 5.507 0 01-1.122 1.139 5.68 5.68 0 01-3.426 1.108V16.78c.819-.03 1.583-.357 2.304-.972a3.702 3.702 0 001.231-2.308h-3.329v-1.38h8.66v1.38h.006zm1.983 4.598c0-1.12-.146-2.29-.43-3.497a11.685 11.685 0 00-1.487-3.477h1.535c.642.88 1.133 1.932 1.473 3.133.322 1.219.48 2.505.48 3.835s-.158 2.616-.48 3.816c-.333 1.219-.83 2.259-1.473 3.133h-1.535a11.4 11.4 0 001.486-3.478c.291-1.188.43-2.339.43-3.478v.013zm11.49-3.897h-8.61v-1.397h8.61V14.2zm-4.305 6.143c-1.092 0-1.983-.277-2.656-.843-.691-.554-1.025-1.219-1.025-2 0-.782.334-1.429 1.025-2.001.673-.554 1.57-.831 2.656-.831 1.085 0 1.97.277 2.656.83.673.567 1.025 1.238 1.025 2.001 0 .764-.352 1.447-1.025 2-.685.567-1.57.844-2.656.844zm.655 3.22h7.44v1.495h-7.907c-1.71 0-2.559-.794-2.559-2.419v-1.557h1.922v1.33c0 .781.37 1.15 1.104 1.15zm-2.868-12.675h4.42v1.416h-4.42V10.89zm2.207 8.095c.497 0 .928-.13 1.298-.425.351-.277.527-.634.527-1.059 0-.424-.176-.744-.527-1.04-.37-.277-.8-.425-1.298-.425-.497 0-.928.148-1.28.425-.37.29-.545.634-.545 1.04 0 .407.175.782.545 1.059.352.296.77.425 1.28.425zm8.035-4.272h1.983v1.526h-1.983v4.925h-1.904V11.136h1.904v3.576zm6.98 5.546c-.686-.117-1.268-.375-1.747-.781-.673-.555-.994-1.2-.994-1.983 0-.781.333-1.428 1.024-2 .674-.554 1.571-.831 2.656-.831 1.086 0 1.971.277 2.657.831.673.566 1.024 1.237 1.024 2 0 .764-.333 1.428-.994 1.983a3.812 3.812 0 01-1.716.781v1.477h2.128c1.922 0 2.88-.744 2.88-2.258v-8.353h1.905v4.678h1.983v1.545H89.05v7.737h-1.904v-2.616c-.577.517-1.444.782-2.56.782h-8.064v-1.508h3.698v-1.478l.007-.006zm5.22-6.063h-8.61v-1.397h8.61v1.397zm-6.482-3.318h4.42v1.416h-4.42v-1.416zm2.207 8.095c.498 0 .928-.13 1.298-.425.352-.277.528-.634.528-1.059 0-.424-.176-.744-.528-1.04-.37-.277-.8-.425-1.297-.425a2.02 2.02 0 00-1.28.425c-.37.29-.546.634-.546 1.04 0 .407.176.782.546 1.059.352.296.77.425 1.28.425zM97.63 11.13l-3.972 14.09h-1.844l3.972-14.09h1.844zm6.513 4.696c.721-.892 1.121-1.883 1.182-2.991h-5.476v-1.477h6.404c.77 0 1.14.504 1.122 1.495a6.143 6.143 0 01-.291 1.736h2.722v-3.46h1.904v10.028h-1.904v-5.023h-3.456c-.225.326-.479.653-.752.96-1.504 1.675-3.535 2.697-6.1 3.053v-1.495c1.952-.456 3.492-1.398 4.645-2.826zm.4 7.72h7.446v1.507h-7.907c-1.716 0-2.559-.794-2.559-2.419v-2.16h1.922v1.914c0 .782.37 1.151 1.104 1.151l-.006.006zm14.93-11.819c0 1.785.4 3.09 1.231 3.865a3.617 3.617 0 002.335 1.06v1.476c-1.377-.03-2.608-.535-3.699-1.477a3.772 3.772 0 01-.819-.942 4.71 4.71 0 01-.819.942c-1.103.942-2.334 1.447-3.699 1.477v-1.477a3.672 3.672 0 002.335-1.059c.819-.781 1.231-2.08 1.231-3.865v-.425h1.892v.425h.012zm7.713 10.969h-8.532v.178c0 .474.292.696.868.696h7.701v1.477h-7.926c-1.698 0-2.547-.782-2.547-2.37V21.25h8.532v-.83h-8.532v-1.466h10.036c.255 0 .4.148.4.407v3.336zm0-11.572v7.066h-1.904v-3.318h-3.474v-1.508h3.474v-2.24h1.904z" fill="#000"/></svg>